<mxfile host="app.diagrams.net" modified="2024-02-19T21:52:24.072Z" agent="Mozilla/5.0 (Windows NT 10.0; Win64; x64) AppleWebKit/537.36 (KHTML, like Gecko) Chrome/121.0.0.0 Safari/537.36" etag="EO4TmuJiHlz5SgOlmAT9" version="23.1.3" type="device">
  <diagram name="Page-1" id="x4ZlYham3dK5yTxgkXLu">
    <mxGraphModel dx="2074" dy="1114" grid="1" gridSize="10" guides="1" tooltips="1" connect="1" arrows="1" fold="1" page="1" pageScale="1" pageWidth="850" pageHeight="1100" math="0" shadow="0">
      <root>
        <mxCell id="0" />
        <mxCell id="1" parent="0" />
        <mxCell id="M52gzpyTLSXpvrnsyd9e-2" value="u4&lt;br&gt;•&lt;br style=&quot;font-size: 30px;&quot;&gt;d4" style="rounded=0;whiteSpace=wrap;html=1;fontSize=30;" parent="1" vertex="1">
          <mxGeometry x="98" y="240" width="60" height="120" as="geometry" />
        </mxCell>
        <mxCell id="M52gzpyTLSXpvrnsyd9e-4" value="u3&lt;br&gt;•&lt;br style=&quot;font-size: 30px;&quot;&gt;d3" style="rounded=0;whiteSpace=wrap;html=1;fontSize=30;" parent="1" vertex="1">
          <mxGeometry x="258" y="160" width="60" height="120" as="geometry" />
        </mxCell>
        <mxCell id="M52gzpyTLSXpvrnsyd9e-5" value="u2&lt;br&gt;•&lt;br style=&quot;font-size: 30px;&quot;&gt;d2" style="rounded=0;whiteSpace=wrap;html=1;fontSize=30;" parent="1" vertex="1">
          <mxGeometry x="528" y="160" width="60" height="120" as="geometry" />
        </mxCell>
        <mxCell id="M52gzpyTLSXpvrnsyd9e-6" value="u1&lt;br&gt;•&lt;br style=&quot;font-size: 30px;&quot;&gt;d1" style="rounded=0;whiteSpace=wrap;html=1;fontSize=30;" parent="1" vertex="1">
          <mxGeometry x="658" y="240" width="60" height="120" as="geometry" />
        </mxCell>
        <mxCell id="M52gzpyTLSXpvrnsyd9e-7" value="u5&lt;br&gt;•&lt;br style=&quot;font-size: 30px;&quot;&gt;d5" style="rounded=0;whiteSpace=wrap;html=1;fontSize=30;" parent="1" vertex="1">
          <mxGeometry x="378" y="510" width="60" height="120" as="geometry" />
        </mxCell>
        <mxCell id="M52gzpyTLSXpvrnsyd9e-8" value="b3" style="ellipse;whiteSpace=wrap;html=1;aspect=fixed;fontSize=30;" parent="1" vertex="1">
          <mxGeometry x="88" y="530" width="80" height="80" as="geometry" />
        </mxCell>
        <mxCell id="M52gzpyTLSXpvrnsyd9e-9" value="b2" style="ellipse;whiteSpace=wrap;html=1;aspect=fixed;fontSize=30;" parent="1" vertex="1">
          <mxGeometry x="368" y="360" width="80" height="80" as="geometry" />
        </mxCell>
        <mxCell id="M52gzpyTLSXpvrnsyd9e-10" value="b1" style="ellipse;whiteSpace=wrap;html=1;aspect=fixed;fontSize=30;" parent="1" vertex="1">
          <mxGeometry x="648" y="530" width="80" height="80" as="geometry" />
        </mxCell>
        <mxCell id="M52gzpyTLSXpvrnsyd9e-13" value="" style="endArrow=none;html=1;rounded=0;entryX=0;entryY=0.5;entryDx=0;entryDy=0;fillColor=#dae8fc;strokeColor=#6c8ebf;exitX=1;exitY=0.5;exitDx=0;exitDy=0;" parent="1" target="M52gzpyTLSXpvrnsyd9e-6" edge="1" source="M52gzpyTLSXpvrnsyd9e-5">
          <mxGeometry width="50" height="50" relative="1" as="geometry">
            <mxPoint x="588" y="220" as="sourcePoint" />
            <mxPoint x="718" y="340" as="targetPoint" />
            <Array as="points">
              <mxPoint x="640" y="220" />
              <mxPoint x="640" y="300" />
            </Array>
          </mxGeometry>
        </mxCell>
        <mxCell id="M52gzpyTLSXpvrnsyd9e-14" value="" style="endArrow=none;html=1;rounded=0;fillColor=#dae8fc;strokeColor=#6c8ebf;exitX=0;exitY=0.5;exitDx=0;exitDy=0;entryX=1;entryY=0.5;entryDx=0;entryDy=0;entryPerimeter=0;" parent="1" edge="1" target="M52gzpyTLSXpvrnsyd9e-15" source="M52gzpyTLSXpvrnsyd9e-5">
          <mxGeometry width="50" height="50" relative="1" as="geometry">
            <mxPoint x="710" y="280" as="sourcePoint" />
            <mxPoint x="740" y="250" as="targetPoint" />
            <Array as="points">
              <mxPoint x="460" y="220" />
              <mxPoint x="460" y="80" />
            </Array>
          </mxGeometry>
        </mxCell>
        <mxCell id="M52gzpyTLSXpvrnsyd9e-15" value="ROW1" style="text;html=1;align=center;verticalAlign=middle;resizable=0;points=[];autosize=1;strokeColor=#6c8ebf;fillColor=#dae8fc;fontSize=22;fontStyle=1" parent="1" vertex="1">
          <mxGeometry y="60" width="90" height="40" as="geometry" />
        </mxCell>
        <mxCell id="M52gzpyTLSXpvrnsyd9e-20" value="" style="endArrow=none;html=1;rounded=0;entryX=0.009;entryY=0.51;entryDx=0;entryDy=0;entryPerimeter=0;fillColor=#d5e8d4;strokeColor=#82b366;exitX=1;exitY=0.5;exitDx=0;exitDy=0;" parent="1" target="M52gzpyTLSXpvrnsyd9e-21" edge="1" source="M52gzpyTLSXpvrnsyd9e-4">
          <mxGeometry width="50" height="50" relative="1" as="geometry">
            <mxPoint x="680" y="410" as="sourcePoint" />
            <mxPoint x="730" y="410" as="targetPoint" />
            <Array as="points">
              <mxPoint x="370" y="220" />
              <mxPoint x="370" y="320" />
              <mxPoint x="580" y="320" />
              <mxPoint x="580" y="410" />
            </Array>
          </mxGeometry>
        </mxCell>
        <mxCell id="M52gzpyTLSXpvrnsyd9e-21" value="ROW2" style="text;html=1;align=center;verticalAlign=middle;resizable=0;points=[];autosize=1;strokeColor=#82b366;fillColor=#d5e8d4;fontSize=22;fontStyle=1" parent="1" vertex="1">
          <mxGeometry x="748" y="390" width="90" height="40" as="geometry" />
        </mxCell>
        <mxCell id="M52gzpyTLSXpvrnsyd9e-24" value="ROW3" style="text;html=1;align=center;verticalAlign=middle;resizable=0;points=[];autosize=1;strokeColor=#9673a6;fillColor=#e1d5e7;fontSize=22;fontStyle=1" parent="1" vertex="1">
          <mxGeometry x="758" y="690" width="90" height="40" as="geometry" />
        </mxCell>
        <mxCell id="M52gzpyTLSXpvrnsyd9e-25" value="" style="endArrow=none;html=1;rounded=0;fillColor=#e1d5e7;strokeColor=#9673a6;exitX=1;exitY=0.5;exitDx=0;exitDy=0;" parent="1" target="M52gzpyTLSXpvrnsyd9e-24" edge="1" source="M52gzpyTLSXpvrnsyd9e-7">
          <mxGeometry width="50" height="50" relative="1" as="geometry">
            <mxPoint x="690" y="710" as="sourcePoint" />
            <mxPoint x="640" y="560" as="targetPoint" />
            <Array as="points">
              <mxPoint x="580" y="570" />
              <mxPoint x="580" y="710" />
            </Array>
          </mxGeometry>
        </mxCell>
        <mxCell id="M52gzpyTLSXpvrnsyd9e-28" value="" style="endArrow=none;html=1;rounded=0;exitX=0.5;exitY=0.06;exitDx=0;exitDy=0;exitPerimeter=0;fillColor=#ffe6cc;strokeColor=#d79b00;entryX=0.5;entryY=0;entryDx=0;entryDy=0;" parent="1" source="M52gzpyTLSXpvrnsyd9e-29" edge="1" target="M52gzpyTLSXpvrnsyd9e-6">
          <mxGeometry width="50" height="50" relative="1" as="geometry">
            <mxPoint x="40" y="670" as="sourcePoint" />
            <mxPoint x="480" y="800" as="targetPoint" />
            <Array as="points">
              <mxPoint x="780" y="120" />
              <mxPoint x="688" y="120" />
            </Array>
          </mxGeometry>
        </mxCell>
        <mxCell id="M52gzpyTLSXpvrnsyd9e-29" value="COL1" style="text;html=1;align=center;verticalAlign=middle;resizable=0;points=[];autosize=1;strokeColor=#d79b00;fillColor=#ffe6cc;fontSize=22;fontStyle=1" parent="1" vertex="1">
          <mxGeometry x="740" y="30" width="80" height="40" as="geometry" />
        </mxCell>
        <mxCell id="M52gzpyTLSXpvrnsyd9e-31" value="" style="endArrow=none;html=1;rounded=0;exitX=0.496;exitY=0;exitDx=0;exitDy=0;exitPerimeter=0;fillColor=#f8cecc;strokeColor=#b85450;entryX=0.5;entryY=1;entryDx=0;entryDy=0;" parent="1" source="M52gzpyTLSXpvrnsyd9e-32" edge="1" target="M52gzpyTLSXpvrnsyd9e-7">
          <mxGeometry width="50" height="50" relative="1" as="geometry">
            <mxPoint x="240" y="920" as="sourcePoint" />
            <mxPoint x="240" y="520" as="targetPoint" />
            <Array as="points">
              <mxPoint x="270" y="680" />
              <mxPoint x="408" y="680" />
            </Array>
          </mxGeometry>
        </mxCell>
        <mxCell id="M52gzpyTLSXpvrnsyd9e-32" value="COL2" style="text;html=1;align=center;verticalAlign=middle;resizable=0;points=[];autosize=1;strokeColor=#b85450;fillColor=#f8cecc;fontSize=22;fontStyle=1" parent="1" vertex="1">
          <mxGeometry x="230" y="740" width="80" height="40" as="geometry" />
        </mxCell>
        <mxCell id="M52gzpyTLSXpvrnsyd9e-34" value="" style="endArrow=none;html=1;rounded=0;exitX=0;exitY=0.5;exitDx=0;exitDy=0;entryX=0.495;entryY=0.007;entryDx=0;entryDy=0;entryPerimeter=0;fillColor=#e1d5e7;strokeColor=#67AB9F;" parent="1" source="M52gzpyTLSXpvrnsyd9e-8" target="M52gzpyTLSXpvrnsyd9e-35" edge="1">
          <mxGeometry width="50" height="50" relative="1" as="geometry">
            <mxPoint x="575" y="720" as="sourcePoint" />
            <mxPoint x="577" y="860" as="targetPoint" />
            <Array as="points">
              <mxPoint x="40" y="570" />
            </Array>
          </mxGeometry>
        </mxCell>
        <mxCell id="M52gzpyTLSXpvrnsyd9e-35" value="COL5" style="text;html=1;align=center;verticalAlign=middle;resizable=0;points=[];autosize=1;strokeColor=#67AB9F;fillColor=#d5e8d4;fontSize=22;fontStyle=1" parent="1" vertex="1">
          <mxGeometry y="840" width="80" height="40" as="geometry" />
        </mxCell>
        <mxCell id="M52gzpyTLSXpvrnsyd9e-37" value="" style="endArrow=none;html=1;rounded=0;entryX=0.496;entryY=-0.002;entryDx=0;entryDy=0;entryPerimeter=0;fillColor=#fff2cc;strokeColor=#d6b656;exitX=0.5;exitY=0;exitDx=0;exitDy=0;" parent="1" target="M52gzpyTLSXpvrnsyd9e-38" edge="1" source="M52gzpyTLSXpvrnsyd9e-5">
          <mxGeometry width="50" height="50" relative="1" as="geometry">
            <mxPoint x="548" y="740" as="sourcePoint" />
            <mxPoint x="548" y="800" as="targetPoint" />
          </mxGeometry>
        </mxCell>
        <mxCell id="M52gzpyTLSXpvrnsyd9e-38" value="COL3" style="text;html=1;align=center;verticalAlign=middle;resizable=0;points=[];autosize=1;strokeColor=#d6b656;fillColor=#fff2cc;fontSize=22;fontStyle=1" parent="1" vertex="1">
          <mxGeometry x="518" y="10" width="80" height="40" as="geometry" />
        </mxCell>
        <mxCell id="M52gzpyTLSXpvrnsyd9e-41" value="COL4" style="text;html=1;align=center;verticalAlign=middle;resizable=0;points=[];autosize=1;strokeColor=#994C00;fillColor=#f8cecc;fontSize=22;fontStyle=1;" parent="1" vertex="1">
          <mxGeometry x="518" y="820" width="80" height="40" as="geometry" />
        </mxCell>
        <mxCell id="M52gzpyTLSXpvrnsyd9e-42" value="" style="endArrow=none;html=1;rounded=0;exitX=0.502;exitY=0;exitDx=0;exitDy=0;exitPerimeter=0;fillColor=#f8cecc;strokeColor=#994C00;entryX=0.5;entryY=1;entryDx=0;entryDy=0;" parent="1" source="M52gzpyTLSXpvrnsyd9e-41" edge="1" target="M52gzpyTLSXpvrnsyd9e-5">
          <mxGeometry width="50" height="50" relative="1" as="geometry">
            <mxPoint x="540" y="880" as="sourcePoint" />
            <mxPoint x="640" y="740" as="targetPoint" />
          </mxGeometry>
        </mxCell>
        <mxCell id="Fpr4YUPBkdzIKtMaEGXV-2" value="" style="endArrow=none;html=1;rounded=0;exitX=0;exitY=0.5;exitDx=0;exitDy=0;entryX=0;entryY=0.5;entryDx=0;entryDy=0;fillColor=#e1d5e7;strokeColor=#67AB9F;" edge="1" parent="1" source="M52gzpyTLSXpvrnsyd9e-9" target="M52gzpyTLSXpvrnsyd9e-8">
          <mxGeometry width="50" height="50" relative="1" as="geometry">
            <mxPoint x="118" y="280" as="sourcePoint" />
            <mxPoint x="70" y="550" as="targetPoint" />
            <Array as="points">
              <mxPoint x="40" y="400" />
              <mxPoint x="40" y="570" />
            </Array>
          </mxGeometry>
        </mxCell>
        <mxCell id="Fpr4YUPBkdzIKtMaEGXV-3" value="" style="endArrow=none;html=1;rounded=0;exitX=0;exitY=0.5;exitDx=0;exitDy=0;fillColor=#e1d5e7;strokeColor=#67AB9F;" edge="1" parent="1" source="M52gzpyTLSXpvrnsyd9e-10">
          <mxGeometry width="50" height="50" relative="1" as="geometry">
            <mxPoint x="108" y="590" as="sourcePoint" />
            <mxPoint x="300" y="400" as="targetPoint" />
            <Array as="points">
              <mxPoint x="610" y="570" />
              <mxPoint x="610" y="470" />
              <mxPoint x="300" y="470" />
            </Array>
          </mxGeometry>
        </mxCell>
        <mxCell id="Fpr4YUPBkdzIKtMaEGXV-4" value="" style="endArrow=none;html=1;rounded=0;entryX=1;entryY=0.5;entryDx=0;entryDy=0;fillColor=#dae8fc;strokeColor=#6c8ebf;" edge="1" parent="1" target="M52gzpyTLSXpvrnsyd9e-10">
          <mxGeometry width="50" height="50" relative="1" as="geometry">
            <mxPoint x="640" y="300" as="sourcePoint" />
            <mxPoint x="668" y="310" as="targetPoint" />
            <Array as="points">
              <mxPoint x="640" y="520" />
              <mxPoint x="770" y="520" />
              <mxPoint x="770" y="570" />
            </Array>
          </mxGeometry>
        </mxCell>
        <mxCell id="Fpr4YUPBkdzIKtMaEGXV-5" value="" style="endArrow=none;html=1;rounded=0;entryX=0;entryY=0.5;entryDx=0;entryDy=0;fillColor=#d5e8d4;strokeColor=#82b366;exitX=1;exitY=0.5;exitDx=0;exitDy=0;" edge="1" parent="1" source="M52gzpyTLSXpvrnsyd9e-2" target="M52gzpyTLSXpvrnsyd9e-4">
          <mxGeometry width="50" height="50" relative="1" as="geometry">
            <mxPoint x="328" y="230" as="sourcePoint" />
            <mxPoint x="759" y="420" as="targetPoint" />
            <Array as="points">
              <mxPoint x="200" y="300" />
              <mxPoint x="200" y="220" />
            </Array>
          </mxGeometry>
        </mxCell>
        <mxCell id="Fpr4YUPBkdzIKtMaEGXV-6" value="" style="endArrow=none;html=1;rounded=0;entryX=0;entryY=0.5;entryDx=0;entryDy=0;fillColor=#d5e8d4;strokeColor=#82b366;exitX=1;exitY=0.5;exitDx=0;exitDy=0;" edge="1" parent="1" source="M52gzpyTLSXpvrnsyd9e-9">
          <mxGeometry width="50" height="50" relative="1" as="geometry">
            <mxPoint x="448" y="400" as="sourcePoint" />
            <mxPoint x="548" y="320" as="targetPoint" />
            <Array as="points">
              <mxPoint x="490" y="400" />
              <mxPoint x="490" y="320" />
            </Array>
          </mxGeometry>
        </mxCell>
        <mxCell id="Fpr4YUPBkdzIKtMaEGXV-7" value="" style="endArrow=none;html=1;rounded=0;fillColor=#e1d5e7;strokeColor=#9673a6;exitX=1;exitY=0.5;exitDx=0;exitDy=0;entryX=0;entryY=0.5;entryDx=0;entryDy=0;" edge="1" parent="1" source="M52gzpyTLSXpvrnsyd9e-8" target="M52gzpyTLSXpvrnsyd9e-7">
          <mxGeometry width="50" height="50" relative="1" as="geometry">
            <mxPoint x="448" y="590" as="sourcePoint" />
            <mxPoint x="768" y="720" as="targetPoint" />
            <Array as="points">
              <mxPoint x="330" y="570" />
            </Array>
          </mxGeometry>
        </mxCell>
        <mxCell id="Fpr4YUPBkdzIKtMaEGXV-8" value="" style="endArrow=none;html=1;rounded=0;fillColor=#ffe6cc;strokeColor=#d79b00;entryX=0.5;entryY=0;entryDx=0;entryDy=0;" edge="1" parent="1" target="M52gzpyTLSXpvrnsyd9e-4">
          <mxGeometry width="50" height="50" relative="1" as="geometry">
            <mxPoint x="690" y="120" as="sourcePoint" />
            <mxPoint x="286" y="160" as="targetPoint" />
            <Array as="points">
              <mxPoint x="390" y="120" />
              <mxPoint x="288" y="120" />
            </Array>
          </mxGeometry>
        </mxCell>
        <mxCell id="Fpr4YUPBkdzIKtMaEGXV-9" value="" style="endArrow=none;html=1;rounded=0;fillColor=#ffe6cc;strokeColor=#d79b00;entryX=0.5;entryY=0;entryDx=0;entryDy=0;" edge="1" parent="1" target="M52gzpyTLSXpvrnsyd9e-7">
          <mxGeometry width="50" height="50" relative="1" as="geometry">
            <mxPoint x="350" y="120" as="sourcePoint" />
            <mxPoint x="298" y="170" as="targetPoint" />
            <Array as="points">
              <mxPoint x="350" y="450" />
              <mxPoint x="408" y="450" />
            </Array>
          </mxGeometry>
        </mxCell>
        <mxCell id="Fpr4YUPBkdzIKtMaEGXV-10" value="" style="endArrow=none;html=1;rounded=0;fillColor=#f8cecc;strokeColor=#b85450;entryX=0.5;entryY=1;entryDx=0;entryDy=0;" edge="1" parent="1" target="M52gzpyTLSXpvrnsyd9e-4">
          <mxGeometry width="50" height="50" relative="1" as="geometry">
            <mxPoint x="290" y="680" as="sourcePoint" />
            <mxPoint x="448" y="570" as="targetPoint" />
            <Array as="points" />
          </mxGeometry>
        </mxCell>
        <mxCell id="Fpr4YUPBkdzIKtMaEGXV-11" value="" style="endArrow=none;html=1;rounded=0;fillColor=#f8cecc;strokeColor=#b85450;entryX=0.5;entryY=1;entryDx=0;entryDy=0;" edge="1" parent="1" target="M52gzpyTLSXpvrnsyd9e-6">
          <mxGeometry width="50" height="50" relative="1" as="geometry">
            <mxPoint x="400" y="680" as="sourcePoint" />
            <mxPoint x="548" y="570" as="targetPoint" />
            <Array as="points">
              <mxPoint x="540" y="680" />
              <mxPoint x="540" y="390" />
              <mxPoint x="688" y="390" />
            </Array>
          </mxGeometry>
        </mxCell>
        <mxCell id="Fpr4YUPBkdzIKtMaEGXV-12" value="" style="endArrow=none;html=1;rounded=0;fillColor=#fff2cc;strokeColor=#d6b656;exitX=0.5;exitY=0;exitDx=0;exitDy=0;" edge="1" parent="1" source="M52gzpyTLSXpvrnsyd9e-2">
          <mxGeometry width="50" height="50" relative="1" as="geometry">
            <mxPoint x="568" y="170" as="sourcePoint" />
            <mxPoint x="560" y="140" as="targetPoint" />
            <Array as="points">
              <mxPoint x="128" y="140" />
            </Array>
          </mxGeometry>
        </mxCell>
        <mxCell id="Fpr4YUPBkdzIKtMaEGXV-13" value="" style="endArrow=none;html=1;rounded=0;exitX=0.5;exitY=1;exitDx=0;exitDy=0;fillColor=#f8cecc;strokeColor=#994C00;" edge="1" parent="1" source="M52gzpyTLSXpvrnsyd9e-2">
          <mxGeometry width="50" height="50" relative="1" as="geometry">
            <mxPoint x="568" y="830" as="sourcePoint" />
            <mxPoint x="560" y="800" as="targetPoint" />
            <Array as="points">
              <mxPoint x="128" y="470" />
              <mxPoint x="190" y="470" />
              <mxPoint x="190" y="800" />
            </Array>
          </mxGeometry>
        </mxCell>
        <mxCell id="Fpr4YUPBkdzIKtMaEGXV-14" value="" style="childLayout=tableLayout;recursiveResize=0;shadow=0;fillColor=none;" vertex="1" parent="1">
          <mxGeometry x="120" y="900" width="730" height="200" as="geometry" />
        </mxCell>
        <mxCell id="Fpr4YUPBkdzIKtMaEGXV-27" value="" style="shape=tableRow;horizontal=0;startSize=0;swimlaneHead=0;swimlaneBody=0;top=0;left=0;bottom=0;right=0;dropTarget=0;collapsible=0;recursiveResize=0;expand=0;fontStyle=0;fillColor=none;strokeColor=inherit;" vertex="1" parent="Fpr4YUPBkdzIKtMaEGXV-14">
          <mxGeometry width="730" height="50" as="geometry" />
        </mxCell>
        <mxCell id="Fpr4YUPBkdzIKtMaEGXV-28" value="" style="connectable=0;recursiveResize=0;strokeColor=inherit;fillColor=none;align=center;whiteSpace=wrap;html=1;" vertex="1" parent="Fpr4YUPBkdzIKtMaEGXV-27">
          <mxGeometry width="122" height="50" as="geometry">
            <mxRectangle width="122" height="50" as="alternateBounds" />
          </mxGeometry>
        </mxCell>
        <mxCell id="Fpr4YUPBkdzIKtMaEGXV-29" value="COL1" style="connectable=0;recursiveResize=0;strokeColor=inherit;fillColor=none;align=center;whiteSpace=wrap;html=1;" vertex="1" parent="Fpr4YUPBkdzIKtMaEGXV-27">
          <mxGeometry x="122" width="121" height="50" as="geometry">
            <mxRectangle width="121" height="50" as="alternateBounds" />
          </mxGeometry>
        </mxCell>
        <mxCell id="Fpr4YUPBkdzIKtMaEGXV-30" value="COL2" style="connectable=0;recursiveResize=0;strokeColor=inherit;fillColor=none;align=center;whiteSpace=wrap;html=1;" vertex="1" parent="Fpr4YUPBkdzIKtMaEGXV-27">
          <mxGeometry x="243" width="122" height="50" as="geometry">
            <mxRectangle width="122" height="50" as="alternateBounds" />
          </mxGeometry>
        </mxCell>
        <mxCell id="Fpr4YUPBkdzIKtMaEGXV-67" value="COL3" style="connectable=0;recursiveResize=0;strokeColor=inherit;fillColor=none;align=center;whiteSpace=wrap;html=1;" vertex="1" parent="Fpr4YUPBkdzIKtMaEGXV-27">
          <mxGeometry x="365" width="122" height="50" as="geometry">
            <mxRectangle width="122" height="50" as="alternateBounds" />
          </mxGeometry>
        </mxCell>
        <mxCell id="Fpr4YUPBkdzIKtMaEGXV-81" value="COL4" style="connectable=0;recursiveResize=0;strokeColor=inherit;fillColor=none;align=center;whiteSpace=wrap;html=1;" vertex="1" parent="Fpr4YUPBkdzIKtMaEGXV-27">
          <mxGeometry x="487" width="121" height="50" as="geometry">
            <mxRectangle width="121" height="50" as="alternateBounds" />
          </mxGeometry>
        </mxCell>
        <mxCell id="Fpr4YUPBkdzIKtMaEGXV-74" value="COL5" style="connectable=0;recursiveResize=0;strokeColor=inherit;fillColor=none;align=center;whiteSpace=wrap;html=1;" vertex="1" parent="Fpr4YUPBkdzIKtMaEGXV-27">
          <mxGeometry x="608" width="122" height="50" as="geometry">
            <mxRectangle width="122" height="50" as="alternateBounds" />
          </mxGeometry>
        </mxCell>
        <mxCell id="Fpr4YUPBkdzIKtMaEGXV-62" value="" style="shape=tableRow;horizontal=0;startSize=0;swimlaneHead=0;swimlaneBody=0;top=0;left=0;bottom=0;right=0;dropTarget=0;collapsible=0;recursiveResize=0;expand=0;fontStyle=0;fillColor=none;strokeColor=inherit;" vertex="1" parent="Fpr4YUPBkdzIKtMaEGXV-14">
          <mxGeometry y="50" width="730" height="50" as="geometry" />
        </mxCell>
        <mxCell id="Fpr4YUPBkdzIKtMaEGXV-63" value="ROW1" style="connectable=0;recursiveResize=0;strokeColor=inherit;fillColor=none;align=center;whiteSpace=wrap;html=1;" vertex="1" parent="Fpr4YUPBkdzIKtMaEGXV-62">
          <mxGeometry width="122" height="50" as="geometry">
            <mxRectangle width="122" height="50" as="alternateBounds" />
          </mxGeometry>
        </mxCell>
        <mxCell id="Fpr4YUPBkdzIKtMaEGXV-64" value="u1" style="connectable=0;recursiveResize=0;strokeColor=inherit;fillColor=none;align=center;whiteSpace=wrap;html=1;" vertex="1" parent="Fpr4YUPBkdzIKtMaEGXV-62">
          <mxGeometry x="122" width="121" height="50" as="geometry">
            <mxRectangle width="121" height="50" as="alternateBounds" />
          </mxGeometry>
        </mxCell>
        <mxCell id="Fpr4YUPBkdzIKtMaEGXV-65" value="d1" style="connectable=0;recursiveResize=0;strokeColor=inherit;fillColor=none;align=center;whiteSpace=wrap;html=1;" vertex="1" parent="Fpr4YUPBkdzIKtMaEGXV-62">
          <mxGeometry x="243" width="122" height="50" as="geometry">
            <mxRectangle width="122" height="50" as="alternateBounds" />
          </mxGeometry>
        </mxCell>
        <mxCell id="Fpr4YUPBkdzIKtMaEGXV-68" value="u2" style="connectable=0;recursiveResize=0;strokeColor=inherit;fillColor=none;align=center;whiteSpace=wrap;html=1;" vertex="1" parent="Fpr4YUPBkdzIKtMaEGXV-62">
          <mxGeometry x="365" width="122" height="50" as="geometry">
            <mxRectangle width="122" height="50" as="alternateBounds" />
          </mxGeometry>
        </mxCell>
        <mxCell id="Fpr4YUPBkdzIKtMaEGXV-82" value="d2" style="connectable=0;recursiveResize=0;strokeColor=inherit;fillColor=none;align=center;whiteSpace=wrap;html=1;" vertex="1" parent="Fpr4YUPBkdzIKtMaEGXV-62">
          <mxGeometry x="487" width="121" height="50" as="geometry">
            <mxRectangle width="121" height="50" as="alternateBounds" />
          </mxGeometry>
        </mxCell>
        <mxCell id="Fpr4YUPBkdzIKtMaEGXV-75" value="b1" style="connectable=0;recursiveResize=0;strokeColor=inherit;fillColor=none;align=center;whiteSpace=wrap;html=1;" vertex="1" parent="Fpr4YUPBkdzIKtMaEGXV-62">
          <mxGeometry x="608" width="122" height="50" as="geometry">
            <mxRectangle width="122" height="50" as="alternateBounds" />
          </mxGeometry>
        </mxCell>
        <mxCell id="Fpr4YUPBkdzIKtMaEGXV-58" style="shape=tableRow;horizontal=0;startSize=0;swimlaneHead=0;swimlaneBody=0;top=0;left=0;bottom=0;right=0;dropTarget=0;collapsible=0;recursiveResize=0;expand=0;fontStyle=0;fillColor=none;strokeColor=inherit;" vertex="1" parent="Fpr4YUPBkdzIKtMaEGXV-14">
          <mxGeometry y="100" width="730" height="50" as="geometry" />
        </mxCell>
        <mxCell id="Fpr4YUPBkdzIKtMaEGXV-59" value="ROW2" style="connectable=0;recursiveResize=0;strokeColor=inherit;fillColor=none;align=center;whiteSpace=wrap;html=1;" vertex="1" parent="Fpr4YUPBkdzIKtMaEGXV-58">
          <mxGeometry width="122" height="50" as="geometry">
            <mxRectangle width="122" height="50" as="alternateBounds" />
          </mxGeometry>
        </mxCell>
        <mxCell id="Fpr4YUPBkdzIKtMaEGXV-60" value="u3" style="connectable=0;recursiveResize=0;strokeColor=inherit;fillColor=none;align=center;whiteSpace=wrap;html=1;" vertex="1" parent="Fpr4YUPBkdzIKtMaEGXV-58">
          <mxGeometry x="122" width="121" height="50" as="geometry">
            <mxRectangle width="121" height="50" as="alternateBounds" />
          </mxGeometry>
        </mxCell>
        <mxCell id="Fpr4YUPBkdzIKtMaEGXV-61" value="d3" style="connectable=0;recursiveResize=0;strokeColor=inherit;fillColor=none;align=center;whiteSpace=wrap;html=1;" vertex="1" parent="Fpr4YUPBkdzIKtMaEGXV-58">
          <mxGeometry x="243" width="122" height="50" as="geometry">
            <mxRectangle width="122" height="50" as="alternateBounds" />
          </mxGeometry>
        </mxCell>
        <mxCell id="Fpr4YUPBkdzIKtMaEGXV-70" value="u4" style="connectable=0;recursiveResize=0;strokeColor=inherit;fillColor=none;align=center;whiteSpace=wrap;html=1;" vertex="1" parent="Fpr4YUPBkdzIKtMaEGXV-58">
          <mxGeometry x="365" width="122" height="50" as="geometry">
            <mxRectangle width="122" height="50" as="alternateBounds" />
          </mxGeometry>
        </mxCell>
        <mxCell id="Fpr4YUPBkdzIKtMaEGXV-84" value="d4" style="connectable=0;recursiveResize=0;strokeColor=inherit;fillColor=none;align=center;whiteSpace=wrap;html=1;" vertex="1" parent="Fpr4YUPBkdzIKtMaEGXV-58">
          <mxGeometry x="487" width="121" height="50" as="geometry">
            <mxRectangle width="121" height="50" as="alternateBounds" />
          </mxGeometry>
        </mxCell>
        <mxCell id="Fpr4YUPBkdzIKtMaEGXV-77" value="b2" style="connectable=0;recursiveResize=0;strokeColor=inherit;fillColor=none;align=center;whiteSpace=wrap;html=1;" vertex="1" parent="Fpr4YUPBkdzIKtMaEGXV-58">
          <mxGeometry x="608" width="122" height="50" as="geometry">
            <mxRectangle width="122" height="50" as="alternateBounds" />
          </mxGeometry>
        </mxCell>
        <mxCell id="Fpr4YUPBkdzIKtMaEGXV-23" style="shape=tableRow;horizontal=0;startSize=0;swimlaneHead=0;swimlaneBody=0;top=0;left=0;bottom=0;right=0;dropTarget=0;collapsible=0;recursiveResize=0;expand=0;fontStyle=0;fillColor=none;strokeColor=inherit;" vertex="1" parent="Fpr4YUPBkdzIKtMaEGXV-14">
          <mxGeometry y="150" width="730" height="50" as="geometry" />
        </mxCell>
        <mxCell id="Fpr4YUPBkdzIKtMaEGXV-24" value="ROW3" style="connectable=0;recursiveResize=0;strokeColor=inherit;fillColor=none;align=center;whiteSpace=wrap;html=1;" vertex="1" parent="Fpr4YUPBkdzIKtMaEGXV-23">
          <mxGeometry width="122" height="50" as="geometry">
            <mxRectangle width="122" height="50" as="alternateBounds" />
          </mxGeometry>
        </mxCell>
        <mxCell id="Fpr4YUPBkdzIKtMaEGXV-25" value="u5" style="connectable=0;recursiveResize=0;strokeColor=inherit;fillColor=none;align=center;whiteSpace=wrap;html=1;" vertex="1" parent="Fpr4YUPBkdzIKtMaEGXV-23">
          <mxGeometry x="122" width="121" height="50" as="geometry">
            <mxRectangle width="121" height="50" as="alternateBounds" />
          </mxGeometry>
        </mxCell>
        <mxCell id="Fpr4YUPBkdzIKtMaEGXV-26" value="d5" style="connectable=0;recursiveResize=0;strokeColor=inherit;fillColor=none;align=center;whiteSpace=wrap;html=1;" vertex="1" parent="Fpr4YUPBkdzIKtMaEGXV-23">
          <mxGeometry x="243" width="122" height="50" as="geometry">
            <mxRectangle width="122" height="50" as="alternateBounds" />
          </mxGeometry>
        </mxCell>
        <mxCell id="Fpr4YUPBkdzIKtMaEGXV-71" style="connectable=0;recursiveResize=0;strokeColor=inherit;fillColor=none;align=center;whiteSpace=wrap;html=1;" vertex="1" parent="Fpr4YUPBkdzIKtMaEGXV-23">
          <mxGeometry x="365" width="122" height="50" as="geometry">
            <mxRectangle width="122" height="50" as="alternateBounds" />
          </mxGeometry>
        </mxCell>
        <mxCell id="Fpr4YUPBkdzIKtMaEGXV-85" style="connectable=0;recursiveResize=0;strokeColor=inherit;fillColor=none;align=center;whiteSpace=wrap;html=1;" vertex="1" parent="Fpr4YUPBkdzIKtMaEGXV-23">
          <mxGeometry x="487" width="121" height="50" as="geometry">
            <mxRectangle width="121" height="50" as="alternateBounds" />
          </mxGeometry>
        </mxCell>
        <mxCell id="Fpr4YUPBkdzIKtMaEGXV-78" value="b3" style="connectable=0;recursiveResize=0;strokeColor=inherit;fillColor=none;align=center;whiteSpace=wrap;html=1;" vertex="1" parent="Fpr4YUPBkdzIKtMaEGXV-23">
          <mxGeometry x="608" width="122" height="50" as="geometry">
            <mxRectangle width="122" height="50" as="alternateBounds" />
          </mxGeometry>
        </mxCell>
      </root>
    </mxGraphModel>
  </diagram>
</mxfile>
